HIERARCHY
ROOT Hips
{
	OFFSET 0.00000 0.00000 0.00000
	CHANNELS 6 Xposition Yposition Zposition Yrotation Zrotation Xrotation 
	JOINT Lumbar
	{
		OFFSET 0 0 0
		CHANNELS 3 Zrotation Xrotation Yrotation
		JOINT Neck
		{
			OFFSET 0.00 0.2701 0.00
			CHANNELS 3 Zrotation Xrotation Yrotation
			End Site
			{
				OFFSET 0.00 0.1379 0.00
			}
		}
		JOINT RightShoulder
		{
			OFFSET 0.0119 0.2289 0.1181
			CHANNELS 3 Zrotation Xrotation Yrotation
			JOINT RightElbow
			{
				OFFSET 0.00 -0.1475 0.00
				CHANNELS 2 Zrotation Yrotation
				JOINT RightWrist
				{
					OFFSET 0.00 -0.1605 0.00
					CHANNELS 2 Zrotation Xrotation
					End Site
					{
						OFFSET 0.0040 -0.1068 0.0006
					}
				}
			}
		}
		JOINT LeftShoulder
		{
			OFFSET 0.0119 0.2289 -0.1181
			CHANNELS 3 Zrotation Xrotation Yrotation
			JOINT LeftElbow
			{
				OFFSET 0.00 -0.1475 0.00
				CHANNELS 2 Zrotation Yrotation
				JOINT LeftWrist
				{
					OFFSET 0.00 -0.1605 0.00
					CHANNELS 2 Zrotation Xrotation
					End Site
					{
						OFFSET 0.0040 -0.1068 -0.0006
					}
				}
			}
		}
	}
	JOINT RightHip
	{
		OFFSET 0.0316 -0.0424 0.0458
		CHANNELS 3 Zrotation Xrotation Yrotation
		JOINT RightKnee
		{
			OFFSET 0.00 -0.2438 0.00
			CHANNELS 1 Zrotation
			JOINT RightAnkle
			{
				OFFSET 0.00 -0.2449 0.00
				CHANNELS 3 Zrotation Xrotation Yrotation
				End Site
				{
					OFFSET 0.1237 -0.0542 0.0051
				}
			}
		}
	}
	JOINT LeftHip
	{
		OFFSET 0.0316 -0.0424 -0.0458
		CHANNELS 3 Zrotation Xrotation Yrotation
		JOINT LeftKnee
		{
			OFFSET 0.00 -0.2438 0.00
			CHANNELS 1 Zrotation
			JOINT LeftAnkle
			{
				OFFSET 0.00 -0.2449 0.00
				CHANNELS 3 Zrotation Xrotation Yrotation
				End Site
				{
					OFFSET 0.1237 -0.0542 -0.0051
				}
			}
		}
	}
}
MOTION
Frames: 29
Frame Time: 0.02
0 0.57926 0 177.7869 0 3.51082 8.49598 -1.48204 -1.53068 -34.40611 1.16915 3.98504 24.25852 -12.8366 -2.03092 9.99889 81.07072 -0.52517 1.22544 25.98969 5.29069 -2.48001 7.6212 -75.69587 -6.5694 0.75144 2.82535 2.67347 16.81515 -20.75429 11.01573 -8.80573 -12.18143 1.07831 -5.35473 -5.85677 -14.79527 8.09642 6.47044 10.69611
-3e-05 0.57925 -0.00018 177.74108 0 3.50986 8.49007 -1.48207 -1.56361 -34.29413 1.20116 3.97982 24.15159 -12.86142 -2.0092 10.00146 81.07063 -0.50605 1.24273 25.88059 5.27646 -2.54553 7.62074 -75.7622 -6.56226 0.75786 2.83156 2.68266 16.78478 -20.76257 11.03225 -8.79129 -12.11366 1.07783 -5.34606 -5.88456 -14.81738 8.09498 6.49394 10.76049
-6e-05 0.57924 -0.00036 177.69521 0 3.50888 8.48425 -1.48214 -1.59629 -34.18255 1.23299 3.97459 24.04496 -12.88613 -1.98685 10.00422 81.07081 -0.48715 1.25984 25.77142 5.2626 -2.61311 7.62088 -75.82813 -6.5556 0.76427 2.83771 2.69192 16.75484 -20.7708 11.04863 -8.77692 -12.04628 1.0773 -5.33732 -5.91197 -14.83948 8.09364 6.51732 10.82452
-0.0001 0.57923 -0.00053 177.64889 0 3.50777 8.47863 -1.48231 -1.62846 -34.07158 1.26461 3.96963 23.93889 -12.91093 -1.962 10.00743 81.07209 -0.46888 1.27665 25.66216 5.24937 -2.68625 7.62225 -75.8927 -6.5502 0.7705 2.84369 2.70148 16.72612 -20.77879 11.06456 -8.76256 -11.97972 1.07679 -5.3283 -5.93838 -14.86184 8.09256 6.54047 10.88788
-0.00012 0.57922 -0.00071 177.60521 0 3.50731 8.47177 -1.48186 -1.66353 -33.95747 1.29757 3.96365 23.83027 -12.93562 -1.95069 10.00789 81.06757 -0.44719 1.29536 25.55479 5.23193 -2.72605 7.61576 -75.96404 -6.53746 0.77748 2.85058 2.70935 16.69071 -20.78785 11.0828 -8.748 -11.90874 1.07643 -5.32081 -5.97037 -14.88291 8.08993 6.56484 10.95492
-0.00016 0.57921 -0.00089 177.55582 0 3.50552 8.46768 -1.48278 -1.6923 -33.85007 1.3275 3.95956 23.72687 -12.96025 -1.91054 10.01443 81.07528 -0.43279 1.30982 25.44258 5.22399 -2.83896 7.62682 -76.02126 -6.54071 0.783 2.8555 2.72086 16.66965 -20.79477 11.09617 -8.73395 -11.84726 1.07561 -5.31006 -5.99031 -14.90663 8.09067 6.5866 11.01402
-0.00022 0.57921 -0.00111 177.49003 0 3.49953 8.47057 -1.48707 -1.70487 -33.76003 1.35087 3.96323 23.63871 -12.98766 -1.78876 10.03603 81.11867 -0.43851 1.31452 25.32243 5.23798 -3.14077 7.68021 -76.03704 -6.58548 0.78292 2.85506 2.74266 16.68757 -20.79473 11.09561 -8.72043 -11.81044 1.07458 -5.2899 -5.97822 -14.93931 8.10058 6.60164 11.05278
-0.0003 0.57922 -0.00133 177.41855 0 3.49228 8.47655 -1.49279 -1.71093 -33.6775 1.37083 3.96849 23.55616 -13.01458 -1.63834 10.06396 81.17412 -0.45148 1.31469 25.19693 5.2622 -3.51811 7.75221 -76.0389 -6.64665 0.78145 2.85256 2.76813 16.72004 -20.79271 11.09023 -8.70756 -11.78343 1.07288 -5.26649 -5.95379 -14.97448 8.11398 6.61403 11.08333
-0.00037 0.57922 -0.00154 177.34992 0 3.48596 8.48139 -1.49811 -1.7191 -33.59137 1.39124 3.97116 23.46961 -13.03972 -1.50188 10.09038 81.22283 -0.46129 1.31552 25.06933 5.28475 -3.87108 7.82019 -76.04888 -6.70245 0.78193 2.85099 2.79182 16.74639 -20.79234 11.08733 -8.6949 -11.75298 1.07079 -5.24476 -5.93406 -15.00745 8.12588 6.62728 11.1166
-0.00043 0.57923 -0.00176 177.27999 0 3.47817 8.48449 -1.50242 -1.73055 -33.50346 1.41644 3.9811 23.38673 -13.07298 -1.36047 10.11168 81.27676 -0.47101 1.3218 24.95811 5.29537 -4.18617 7.87075 -76.05179 -6.75059 0.77772 2.84961 2.81601 16.77098 -20.78891 11.08311 -8.68007 -11.71842 1.07162 -5.22215 -5.91783 -15.04471 8.13729 6.64181 11.15395
-0.00052 0.57923 -0.00198 177.21166 0 3.47309 8.49275 -1.50912 -1.73397 -33.42426 1.43066 3.97706 23.30061 -13.08964 -1.2238 10.14431 81.32281 -0.48206 1.31624 24.81494 5.33245 -4.59284 7.96036 -76.06549 -6.81718 0.78186 2.84712 2.84 16.80228 -20.79124 11.08063 -8.67 -11.69452 1.06623 -5.20062 -5.89181 -15.07391 8.1507 6.65327 11.18107
-0.00067 0.57923 -0.00219 177.14715 0 3.47637 8.50738 -1.52257 -1.71389 -33.33969 1.41693 3.9272 23.17851 -13.05686 -1.09779 10.21385 81.34311 -0.50003 1.27411 24.55604 5.44724 -5.27826 8.16736 -76.11789 -6.94252 0.81892 2.8439 2.86276 16.8519 -20.81107 11.08273 -8.67205 -11.69973 1.04356 -5.18276 -5.83802 -15.07734 8.16736 6.6548 11.17989
-0.00086 0.57922 -0.0024 177.08495 0 3.48235 8.52829 -1.53831 -1.68655 -33.26877 1.39197 3.8644 23.05825 -13.0081 -0.98006 10.29317 81.3553 -0.51831 1.22124 24.27096 5.5871 -6.04434 8.41035 -76.18069 -7.08362 0.86284 2.8393 2.88513 16.90706 -20.8365 11.08698 -8.67903 -11.71501 1.01465 -5.1661 -5.77554 -15.07293 8.1861 6.65363 11.16895
-0.00104 0.57922 -0.00262 177.0228 0 3.4867 8.55121 -1.55261 -1.6644 -33.20966 1.37112 3.81213 22.95333 -12.96909 -0.86381 10.36339 81.37183 -0.5329 1.17642 24.01625 5.71065 -6.74521 8.62766 -76.23499 -7.20982 0.89715 2.83409 2.90754 16.95761 -20.85867 11.09117 -8.68436 -11.72428 0.98882 -5.14897 -5.71942 -15.07429 8.20489 6.65515 11.164
-0.00118 0.57922 -0.00283 176.95522 0 3.4926 8.55433 -1.56849 -1.63385 -33.07471 1.35434 3.7407 22.77821 -12.91949 -0.72137 10.45377 81.38586 -0.56201 1.11768 23.68168 5.85481 -7.57181 8.88514 -76.30437 -7.36942 0.95808 2.83397 2.93073 17.01785 -20.88396 11.0914 -8.68729 -11.73971 0.96208 -5.13148 -5.6525 -15.06724 8.21985 6.65072 11.15274
-0.00141 0.5792 -0.00304 176.90027 0 3.49607 8.59936 -1.58181 -1.6194 -33.10095 1.32645 3.70558 22.75227 -12.88823 -0.63963 10.50404 81.4032 -0.56173 1.08592 23.50941 5.96247 -8.15154 9.06708 -76.34544 -7.46278 0.96617 2.82305 2.95206 17.05861 -20.90393 11.10036 -8.6963 -11.74484 0.93559 -5.11497 -5.60642 -15.07477 8.24294 6.65766 11.15173
-0.00186 0.57916 -0.00323 176.87437 0 3.49115 8.76428 -1.58598 -1.64885 -33.56626 1.27104 3.77827 23.11491 -12.91139 -0.68569 10.4461 81.43019 -0.47271 1.12633 23.77341 5.95841 -8.06123 9.03456 -76.30292 -7.37268 0.81934 2.78223 2.96919 17.04724 -20.90953 11.13354 -8.72146 -11.71699 0.91369 -5.10156 -5.61838 -15.13416 8.29023 6.70022 11.18706
-0.0024 0.57909 -0.00341 176.86257 0 3.48393 8.96931 -1.58789 -1.69512 -34.19227 1.20504 3.88713 23.63119 -12.95391 -0.79593 10.34786 81.46109 -0.3555 1.19456 24.20484 5.91789 -7.71697 8.92519 -76.23275 -7.21583 0.62108 2.73097 2.9843 17.01505 -20.90942 11.17524 -8.75241 -11.67886 0.89236 -5.089 -5.65227 -15.20719 8.34511 6.75361 11.23192
-0.00289 0.57904 -0.0036 176.84718 0 3.47845 9.15321 -1.59172 -1.73535 -34.74838 1.1433 3.97657 24.09297 -12.9872 -0.90653 10.26306 81.49098 -0.25601 1.25414 24.57195 5.8968 -7.46351 8.84763 -76.17641 -7.08581 0.45039 2.68445 2.99974 16.99081 -20.91065 11.21277 -8.78043 -11.64663 0.86849 -5.07557 -5.67686 -15.26694 8.3951 6.79978 11.26887
-0.00342 0.57898 -0.00378 176.81803 0 3.47005 9.35275 -1.59143 -1.76893 -35.29801 1.08238 4.07816 24.49286 -13.02039 -0.90838 10.19358 81.51701 -0.13559 1.29913 24.88945 5.86333 -7.30233 8.78013 -76.11264 -6.96635 0.25968 2.63676 3.01757 16.97469 -20.91681 11.25203 -8.81012 -11.60919 0.85178 -5.06411 -5.69711 -15.35417 8.45157 6.85579 11.32099
-0.00387 0.57892 -0.00398 176.82331 0 3.46724 9.5252 -1.59966 -1.81997 -35.89127 1.01881 4.16319 25.05469 -13.06031 -1.13227 10.0895 81.55254 -0.05234 1.37792 25.34911 5.84817 -6.90577 8.67845 -76.06074 -6.81485 0.10154 2.59048 3.03004 16.9347 -20.912 11.2892 -8.83738 -11.58049 0.82322 -5.04889 -5.73326 -15.3902 8.4959 6.89362 11.34337
-0.00415 0.57887 -0.0042 176.90003 0 3.47944 9.64562 -1.62699 -1.91933 -36.63103 0.93768 4.19291 26.05439 -13.0985 -2.12364 9.84375 81.61196 -0.07766 1.56967 26.17064 5.88027 -5.76388 8.45766 -76.02658 -6.5441 0.01856 2.53856 3.02745 16.84912 -20.8716 11.32253 -8.85863 -11.57389 0.73848 -5.02179 -5.79557 -15.25991 8.50857 6.8812 11.28606
-0.00432 0.57883 -0.00443 177.0152 0 3.49731 9.73049 -1.66346 -2.03489 -37.39567 0.85627 4.20434 27.2056 -13.14511 -3.30599 9.5778 81.68269 -0.14241 1.78806 27.127 5.93472 -4.42221 8.21563 -76.01265 -6.25523 -0.02505 2.4907 3.01974 16.73646 -20.82127 11.35262 -8.87669 -11.57685 0.64689 -4.99113 -5.87609 -15.08269 8.50825 6.84977 11.19782
-0.00448 0.57878 -0.00466 177.12533 0 3.51349 9.81117 -1.69954 -2.14034 -38.10754 0.78402 4.22546 28.26993 -13.199 -4.28735 9.35412 81.74719 -0.18865 1.97889 28.01589 5.98617 -3.27576 8.00846 -75.99947 -6.0015 -0.06848 2.44893 3.01483 16.62735 -20.78024 11.38163 -8.89499 -11.57883 0.57287 -4.96294 -5.95564 -14.9399 8.51119 6.82522 11.12048
-0.00491 0.57873 -0.00487 177.18131 0 3.52674 9.98229 -1.72141 -2.25809 -39.00506 0.67507 4.24445 29.41922 -13.20942 -5.74669 8.97764 81.80992 -0.23284 2.24218 28.93953 6.00406 -1.68241 7.6817 -75.92974 -5.61907 -0.18897 2.37329 3.00766 16.55822 -20.72009 11.42202 -8.91918 -11.5678 0.43493 -4.93114 -6.00256 -14.73817 8.52475 6.80796 11.05613
-0.00474 0.5787 -0.00514 177.36172 0 3.54636 9.95216 -1.77287 -2.35372 -39.51346 0.64034 4.26 30.42116 -13.30869 -6.26301 8.9298 81.8871 -0.2955 2.35269 29.81715 6.10025 -0.97224 7.61314 -76.00001 -5.51729 -0.14021 2.3693 3.00424 16.39497 -20.69585 11.43742 -8.92955 -11.58434 0.43212 -4.90605 -6.12465 -14.65301 8.51402 6.77148 10.95806
-0.00301 0.57874 -0.00557 177.85412 0 3.59119 9.4085 -1.92213 -2.38523 -38.99557 0.83041 4.29691 31.01331 -13.68207 -4.06114 9.67889 81.93202 -0.3617 2.10507 30.56163 6.38554 -2.77908 8.16049 -76.29831 -6.0534 0.37685 2.56198 3.01076 16.01858 -20.78688 11.3878 -8.90874 -11.69212 0.77418 -4.89966 -6.42047 -14.85852 8.43105 6.6814 10.76734
-0.00066 0.57881 -0.00607 178.47507 0 3.64028 8.65747 -2.09701 -2.39353 -38.07573 1.09152 4.32615 31.44321 -14.13973 -0.91774 10.78756 82.00397 -0.4526 1.69206 31.24777 6.75348 -5.47558 8.99451 -76.75992 -6.89575 1.06058 2.82643 3.02183 15.54109 -20.91159 11.3124 -8.87304 -11.82465 1.25862 -4.90003 -6.79509 -15.19164 8.32585 6.57363 10.54485
0.00146 0.57886 -0.00655 179.05091 0 3.68192 7.9787 -2.24871 -2.41196 -37.30166 1.30719 4.34107 31.92621 -14.53721 1.75306 11.79946 82.10914 -0.55673 1.30533 31.94404 7.09749 -7.7491 9.75633 -77.25495 -7.69561 1.6621 3.05854 3.03155 15.08355 -21.0123 11.24676 -8.83996 -11.93382 1.69681 -4.89806 -7.15486 -15.49329 8.23594 6.4772 10.34173
